<svg id="Layer_1" data-name="Layer 1" xmlns="http://www.w3.org/2000/svg" viewBox="0 0 226.14 57.81"><defs><style>.cls-1{isolation:isolate;font-size:45px;font-family:ArialMT, Arial;letter-spacing:-0.02em;}.cls-1,.cls-3{fill:#fff;}.cls-2{fill:#f26724;}</style></defs><text class="cls-1" transform="translate(58.46 43.2)">brilliance</text><path id="logo" class="cls-2" d="M24,4.8A19.2,19.2,0,1,1,4.8,24,19.22,19.22,0,0,1,24,4.8ZM24,0A24,24,0,1,0,48,24,24,24,0,0,0,24,0Zm0,14.4A9.6,9.6,0,1,1,14.4,24,9.61,9.61,0,0,1,24,14.4Zm0-4.8A14.4,14.4,0,1,0,38.4,24,14.4,14.4,0,0,0,24,9.6Zm0,9.6A4.8,4.8,0,1,0,28.8,24,4.8,4.8,0,0,0,24,19.2Z"/><path class="cls-3" d="M92.52,14.41"/></svg>